<?xml version="1.0" encoding="UTF-8"?>
<svg xmlns="http://www.w3.org/2000/svg" viewBox="460 460 280 280" fill="currentColor">
  <path fill-rule="nonzero" d="M 663.773438 557.046875 C 651.207031 558.800781 638.894531 558.855469 626.597656 559.355469 C 615.609375 559.804688 604.597656 559.890625 593.613281 560.429688 C 588.933594 560.660156 587.445312 559.6875 589.660156 554.949219 C 594.820312 543.917969 599.746094 532.777344 604.613281 521.609375 C 605.746094 519.011719 607.363281 518.128906 610.101562 518.144531 C 645.015625 518.335938 679.929688 518.449219 714.84375 518.601562 C 714.988281 518.601562 715.128906 518.902344 715.6875 519.53125 C 706.558594 533.257812 698.070312 547.695312 687.910156 560.839844 C 676.925781 575.046875 670.851562 590.742188 667.449219 608.113281 C 663.085938 630.378906 657.71875 652.449219 652.910156 674.632812 C 652.121094 678.261719 651.148438 680.539062 646.597656 680.539062 C 630.339844 680.554688 614.082031 680.882812 597.832031 681.390625 C 592.75 681.550781 592.101562 680.199219 594.289062 675.835938 C 599.058594 666.324219 604.410156 656.761719 607.933594 647.039062 C 615.441406 626.324219 625.746094 606.925781 633.683594 586.480469 C 633.773438 586.257812 633.871094 586.035156 633.933594 585.808594 C 637.835938 571.613281 644.816406 560.601562 661.253906 559.308594 C 661.925781 559.253906 662.582031 558.785156 663.210938 558.445312 C 663.371094 558.359375 663.394531 558.023438 663.773438 557.046875 Z"/>
  <path fill-rule="nonzero" d="M 484.3125 630.050781 C 500.949219 593.9375 517.265625 558.589844 533.492188 523.199219 C 534.875 520.179688 536.796875 518.996094 540.125 518.96875 C 556.164062 518.855469 572.207031 518.578125 588.246094 518.253906 C 591.933594 518.179688 593.679688 518.730469 591.707031 522.992188 C 582.652344 542.515625 574 562.230469 564.753906 581.660156 C 561.191406 589.144531 552.976562 590.90625 546.046875 594.28125 C 548.4375 596.828125 551.558594 596.015625 554.144531 595.652344 C 574.113281 592.855469 594.210938 594.726562 614.21875 593.707031 C 618.355469 593.496094 619.253906 594.550781 617.421875 598.480469 C 613.171875 607.582031 609.234375 616.835938 605.25 626.058594 C 604.246094 628.386719 603.253906 630.113281 600.175781 630.105469 C 561.886719 630.023438 523.597656 630.050781 484.3125 630.050781 Z"/>
  <path fill-rule="nonzero" d="M 545.101562 639.46875 C 561.988281 639.46875 577.238281 639.523438 592.488281 639.425781 C 595.761719 639.40625 597.617188 639.738281 595.820312 643.671875 C 590.578125 655.160156 585.589844 666.765625 580.277344 678.222656 C 578.480469 682.101562 572.472656 683.183594 570.402344 679.960938 C 562.0625 667 554.039062 653.839844 545.101562 639.46875 Z"/>
</svg>
